<?xml version="1.0" encoding="utf-8"?>
<!-- Generator: Adobe Illustrator 19.0.0, SVG Export Plug-In . SVG Version: 6.00 Build 0)  -->
<svg version="1.1" id="Layer_1" xmlns="http://www.w3.org/2000/svg" xmlns:xlink="http://www.w3.org/1999/xlink" x="0px" y="0px"
	 viewBox="0 0 1366 768" style="enable-background:new 0 0 1366 768;" xml:space="preserve">
<style type="text/css">
	.st0{fill:url(#XMLID_5_);}
	.st1{opacity:0.61;fill:url(#XMLID_6_);}
	.st2{fill:url(#XMLID_7_);}
</style>
<linearGradient id="XMLID_5_" gradientUnits="userSpaceOnUse" x1="365.7794" y1="895.6173" x2="885.0709" y2="-3.822">
	<stop  offset="0.3744" style="stop-color:#32C5F4"/>
	<stop  offset="0.3839" style="stop-color:#2EC5F1"/>
	<stop  offset="0.5101" style="stop-color:#00BDE0"/>
	<stop  offset="0.6459" style="stop-color:#00B8D5"/>
	<stop  offset="0.7983" style="stop-color:#00B6CF"/>
	<stop  offset="1" style="stop-color:#00B5CD"/>
</linearGradient>
<path id="XMLID_3_" class="st0" d="M120.5,664c54.3,0,108.8,11.6,157.2,36.4c8.1,4.2,16.6,8.8,25.8,8.5c7.5-0.3,14.4-3.9,21.1-7.3
	c97.4-48.8,217.4-49.6,315.5-2.2c8,3.9,16.2,8.1,25,8.5c10.8,0.5,20.8-4.7,30.6-9.4c100.8-48.2,224.5-45.1,322.8,7.9
	c6.7,3.6,13.6,7.5,21.2,7.4c7.1-0.1,13.5-3.7,19.7-7c97.8-50.7,208-52.1,306.2-13.9c-0.5-100.8-1-275.4,0.4-346.1
	c2-102-156-184-348-194S683,0,683,0H0v684.4C37.7,671.2,78.2,664,120.5,664z"/>
<linearGradient id="XMLID_6_" gradientUnits="userSpaceOnUse" x1="-21.4768" y1="464.6874" x2="90.4946" y2="270.7473" gradientTransform="matrix(1 1.492784e-003 -1.492784e-003 1 -3.6956 22.7743)">
	<stop  offset="0.1675" style="stop-color:#C5DE8D;stop-opacity:0"/>
	<stop  offset="0.2503" style="stop-color:#D1C189;stop-opacity:5.970673e-002"/>
	<stop  offset="0.3356" style="stop-color:#DAA884;stop-opacity:0.1212"/>
	<stop  offset="0.4255" style="stop-color:#E0927F;stop-opacity:0.186"/>
	<stop  offset="0.5193" style="stop-color:#E57F7B;stop-opacity:0.2535"/>
	<stop  offset="0.6181" style="stop-color:#E96F77;stop-opacity:0.3248"/>
	<stop  offset="0.7243" style="stop-color:#EC6174;stop-opacity:0.4013"/>
	<stop  offset="0.843" style="stop-color:#EF5973;stop-opacity:0.4869"/>
	<stop  offset="1" style="stop-color:#F05672;stop-opacity:0.6"/>
</linearGradient>
<path id="XMLID_1_" class="st1" d="M0.4,262.5c66.3,0.1,119.9,53.9,119.8,120.2S66.4,502.6,0.1,502.5"/>
<linearGradient id="XMLID_7_" gradientUnits="userSpaceOnUse" x1="1395.0626" y1="431.3508" x2="1230.9617" y2="122.4234" gradientTransform="matrix(0.9866 0.1634 -0.1634 0.9866 68.0918 -213.6651)">
	<stop  offset="0.1675" style="stop-color:#C5DE8D;stop-opacity:0"/>
	<stop  offset="0.1984" style="stop-color:#B8D491;stop-opacity:2.366892e-002"/>
	<stop  offset="0.2991" style="stop-color:#95BE9B;stop-opacity:0.1008"/>
	<stop  offset="0.4053" style="stop-color:#77AEA1;stop-opacity:0.1822"/>
	<stop  offset="0.5174" style="stop-color:#5FA3A6;stop-opacity:0.2681"/>
	<stop  offset="0.6379" style="stop-color:#4B9BA8;stop-opacity:0.3603"/>
	<stop  offset="0.7726" style="stop-color:#3C97AA;stop-opacity:0.4635"/>
	<stop  offset="0.9507" style="stop-color:#3795AA;stop-opacity:0.6"/>
</linearGradient>
<path id="XMLID_2_" class="st2" d="M1360.8,444.3c-44.5-0.8-85.1-25.3-106.7-64.3l-32-57.9c-21.5-38.9-20.6-86.4,2.3-124.5
	l34.2-56.7c23-38.1,64.5-61.1,109-60.2"/>
</svg>
