<?xml version="1.0" encoding="utf-8"?>
<!-- Generator: Adobe Illustrator 19.0.0, SVG Export Plug-In . SVG Version: 6.00 Build 0)  -->
<svg version="1.1" id="Layer_1" xmlns="http://www.w3.org/2000/svg" xmlns:xlink="http://www.w3.org/1999/xlink" x="0px" y="0px"
	 viewBox="0 0 1000 1000" style="enable-background:new 0 0 1000 1000;" xml:space="preserve">
<style type="text/css">
	.st0{display:none;opacity:0.67;fill:url(#XMLID_12_);}
	.st1{display:none;}
	.st2{fill:#FFFFFF;}
	.st3{fill:#00B4CD;}
	.st4{fill:#EE1D4F;}
	.st5{display:none;fill:#FFFFFF;}
	.st6{font-family:'Montserrat-Medium';}
	.st7{font-size:60px;}
	.st8{display:none;fill:none;}
</style>
<linearGradient id="XMLID_12_" gradientUnits="userSpaceOnUse" x1="-44.8933" y1="1112.6559" x2="611.8322" y2="-24.8261">
	<stop  offset="0.1626" style="stop-color:#F4826C"/>
	<stop  offset="0.5862" style="stop-color:#F4826C;stop-opacity:0.6"/>
	<stop  offset="0.6321" style="stop-color:#F79972;stop-opacity:0.6491"/>
	<stop  offset="0.6853" style="stop-color:#FAAE77;stop-opacity:0.7059"/>
	<stop  offset="0.7419" style="stop-color:#FDBF7B;stop-opacity:0.7663"/>
	<stop  offset="0.8026" style="stop-color:#FECB7D;stop-opacity:0.8312"/>
	<stop  offset="0.8707" style="stop-color:#FFD27F;stop-opacity:0.9039"/>
	<stop  offset="0.9606" style="stop-color:#FFD47F"/>
</linearGradient>
<path id="XMLID_1_" class="st0" d="M-355.1,819.8c68.6,0,137.6,14.7,198.9,46.1c10.3,5.3,21,11.2,32.6,10.7c9.5-0.4,18.2-5,26.6-9.2
	c123.2-61.7,275-62.7,399-2.7c10.1,4.9,20.4,10.3,31.7,10.8c13.6,0.6,26.4-6,38.6-11.9c127.5-60.9,283.9-57.1,408.3,10
	c8.4,4.5,17.2,9.5,26.8,9.4c8.9-0.1,17.1-4.7,25-8.9c123.6-64.1,263.1-65.9,387.3-17.6c-0.6-127.4-1.3-348.3,0.5-437.7
	c2.5-129-197.3-232.7-440.1-245.3C537.1,160.9,356.3-20,356.3-20h-863.8v865.6C-459.8,828.9-408.5,819.8-355.1,819.8z"/>
<g id="XMLID_3_" class="st1">
</g>
<path id="XMLID_7_" class="st2" d="M202,823l-25-25C13.1,634.1,13.1,365.9,177,202l25-25c163.9-163.9,432.1-163.9,596,0l25,25
	c163.9,163.9,163.9,432.1,0,596l-25,25C634.1,986.9,365.9,986.9,202,823z"/>
<path id="XMLID_9_" class="st3" d="M204.4,689.7l131.1,124.5c98.1,93.1,254.5,89.1,347.6-8.9l124.5-131.1
	c93.1-98.1,89.1-254.5-8.9-347.6L677,211c10.6,23.4,16.7,49.2,17.4,76.5c1.4,52.7-18,101.1-50.6,137.5l93.2-45.1
	c0,0,26.2,41.7,2,76.2c-24.2,34.4-166.8,126.3-166.8,126.3l3.7,146c0,0,2.6,39.7-32.6,64.2C508.2,817,508.2,817,508.2,817
	s0,0-36-22.7c-36-22.7-35.5-62.4-35.5-62.4l-3.7-146c0,0-145.6-84.5-171.2-117.6s-2-76.2-2-76.2l96.4,41.1
	c-34.9-34.7-57.1-82.5-58.4-135.6c-0.7-27.3,4.1-53.4,13.5-77.3L195.5,342.1C102.4,440.1,106.4,596.6,204.4,689.7z"/>
<path id="XMLID_11_" class="st4" d="M499.2,118.4c-87.9,0-159.1,71.2-159.1,159.1c0,87.9,71.2,159.1,159.1,159.1
	c87.9,0,159.1-71.2,159.1-159.1C658.3,189.7,587,118.4,499.2,118.4z M499.2,370.1c-51.1,0-92.5-41.4-92.5-92.5
	c0-51.1,41.4-92.5,92.5-92.5c51.1,0,92.5,41.4,92.5,92.5C591.7,328.7,550.2,370.1,499.2,370.1z"/>
<polygon id="XMLID_4_" class="st4" points="340,277.6 369.7,370.1 499.2,592.9 628.6,370.1 658.3,277.6 "/>
<text id="XMLID_2_" transform="matrix(1 0 0 1 78.7646 761)" class="st5 st6 st7">OUSSAMA TRAVEL AGENCY</text>
<circle id="XMLID_5_" class="st8" cx="504.6" cy="511.3" r="462.7"/>
</svg>
